<svg width="2293" height="724" viewBox="0 0 2293 724" fill="none" xmlns="http://www.w3.org/2000/svg">
<path fill-rule="evenodd" clip-rule="evenodd" d="M551.218 648.558C542.293 682.06 500.43 693.309 475.915 668.794L366.198 559.077C366.197 559.076 366.198 559.075 366.199 559.075C366.199 559.075 366.199 559.075 366.2 559.075L509.831 273.779C529.249 235.209 488.464 194.085 449.734 213.185L162.137 355.012C162.137 355.013 162.137 355.013 162.137 355.013C162.137 355.014 162.136 355.015 162.135 355.014L55.2061 248.085C30.6909 223.57 41.9403 181.707 75.4415 172.782L648.935 19.9974C682.353 11.0945 712.906 41.6472 704.003 75.0652L551.218 648.558Z" fill="#1DB568"/>
<path fill-rule="evenodd" clip-rule="evenodd" d="M530.085 173.561C542.995 167.194 556.59 180.902 550.117 193.759L370.354 550.821C367.806 555.883 362.623 559.076 356.957 559.076H177.137C168.852 559.076 162.137 552.361 162.137 544.076V364.342C162.137 358.631 165.38 353.415 170.502 350.889L530.085 173.561Z" fill="#B4E6CD"/>
<path d="M1052.62 527.6C1052.62 536.437 1045.46 543.6 1036.62 543.6H863.024C813.224 543.6 788.624 515.4 788.024 483C787.424 455.4 798.224 435.6 824.024 418.8L964.424 325.2C965.624 324.6 966.824 322.8 966.824 321.6C966.824 318.6 964.424 318.6 962.624 318.6H813.624C804.787 318.6 797.624 311.437 797.624 302.6V262.6C797.624 253.763 804.787 246.6 813.624 246.6H980.624C1030.42 246.6 1055.62 274.8 1055.62 307.2C1056.22 334.8 1045.42 354.6 1019.62 371.4L879.224 465C877.424 466.2 876.824 467.4 876.824 469.8C876.824 471.6 878.024 471.6 880.424 471.6H1036.62C1045.46 471.6 1052.62 478.763 1052.62 487.6V527.6Z" fill="#474747"/>
<path d="M1231.5 551.4C1139.1 551.4 1069.5 487.2 1069.5 392.4C1069.5 306.6 1131.9 235.8 1223.7 235.8C1317.9 235.8 1372.5 305.4 1372.5 386.4V395.6C1372.5 404.437 1365.34 411.6 1356.5 411.6H1170.31C1160.52 411.6 1152.89 420.43 1156.43 429.562C1167.81 458.981 1195.12 477.6 1230.9 477.6C1257.54 477.6 1280.53 467.051 1295.54 447.956C1301.01 440.989 1310.53 437.643 1318.44 441.634L1355.46 460.315C1363.25 464.248 1366.53 473.758 1362 481.218C1334.76 526.045 1288.85 551.4 1231.5 551.4ZM1161.71 345.83C1157.07 354.8 1164.72 364.2 1174.82 364.2H1269.91C1279.48 364.2 1287.08 355.663 1283.26 346.881C1273.82 325.198 1251.92 310.2 1223.1 310.2C1193.91 310.2 1172.48 324.975 1161.71 345.83Z" fill="#474747"/>
<path d="M1554.3 321C1506.3 321 1484.7 360 1484.7 405.6V527.6C1484.7 536.437 1477.54 543.6 1468.7 543.6H1415.5C1406.66 543.6 1399.5 536.437 1399.5 527.6V395.4C1399.5 309 1450.5 238.2 1554.3 238.2C1658.1 238.2 1710.3 308.4 1710.3 395.4V527.6C1710.3 536.437 1703.14 543.6 1694.3 543.6H1641.1C1632.26 543.6 1625.1 536.437 1625.1 527.6V405.6C1625.1 360 1602.9 321 1554.3 321Z" fill="#474747"/>
<path d="M1902.2 552C1816.4 552 1773.8 500.4 1773.8 426V334.6C1773.8 325.763 1766.64 318.6 1757.8 318.6H1735.2C1726.36 318.6 1719.2 311.437 1719.2 302.6V262.6C1719.2 253.763 1726.36 246.6 1735.2 246.6H1757.8C1766.64 246.6 1773.8 239.437 1773.8 230.6V187C1773.8 178.163 1780.96 171 1789.8 171H1843C1851.84 171 1859 178.163 1859 187V230.6C1859 239.437 1866.16 246.6 1875 246.6H1948C1956.84 246.6 1964 253.763 1964 262.6V302.6C1964 311.437 1956.84 318.6 1948 318.6H1875C1866.16 318.6 1859 325.763 1859 334.6V423.6C1859 456.6 1878.8 475.8 1910 475.8C1918.46 475.8 1928.06 474.523 1937.34 472.177C1949.52 469.097 1964 477.701 1964 490.268V528.844C1964 534.299 1961.26 539.484 1956.29 541.727C1941.1 548.576 1919.94 552 1902.2 552Z" fill="#474747"/>
<path d="M2141.8 469.2C2185.6 469.2 2207.8 430.2 2207.8 384V262.6C2207.8 253.763 2214.96 246.6 2223.8 246.6H2277C2285.84 246.6 2293 253.763 2293 262.6V394.2C2293 481.2 2241.4 551.4 2141.8 551.4C2042.8 551.4 1991.2 481.2 1991.2 394.2V262.6C1991.2 253.763 1998.36 246.6 2007.2 246.6H2060.4C2069.24 246.6 2076.4 253.763 2076.4 262.6V384.6C2076.4 430.2 2098 469.2 2141.8 469.2Z" fill="#474747"/>
<circle cx="2069.5" cy="127.5" r="43.5" fill="#1DB568"/>
<circle cx="2212.5" cy="127.5" r="43.5" fill="#1DB568"/>
</svg>
