<svg width="2205" height="954" viewBox="0 0 2205 954" fill="none" xmlns="http://www.w3.org/2000/svg">
<path fill-rule="evenodd" clip-rule="evenodd" d="M551.219 705.559C542.294 739.06 500.431 750.309 475.916 725.794L366.198 616.076C366.197 616.075 366.198 616.074 366.198 616.074C366.199 616.074 366.199 616.074 366.199 616.074L509.83 330.779C529.249 292.208 488.463 251.085 449.734 270.184L162.138 412.013C162.138 412.013 162.137 412.013 162.137 412.013C162.137 412.014 162.137 412.014 162.136 412.014L55.2062 305.084C30.6909 280.569 41.9403 238.706 75.4416 229.781L648.935 76.9974C682.353 68.0946 712.905 98.6471 704.003 132.065L551.219 705.559Z" fill="#1DB568"/>
<path fill-rule="evenodd" clip-rule="evenodd" d="M530.085 230.561C542.995 224.194 556.59 237.902 550.117 250.759L370.354 607.821C367.806 612.883 362.623 616.076 356.957 616.076H177.137C168.852 616.076 162.137 609.361 162.137 601.076V421.342C162.137 415.631 165.38 410.415 170.502 407.889L530.085 230.561Z" fill="#B4E6CD"/>
<path d="M763 687V511.2C763 486 768.8 463 780.4 442.2C792.4 421.4 809.6 404.8 832 392.4C854.4 380 881.2 373.8 912.4 373.8C944 373.8 970.8 380 992.8 392.4C1015.2 404.8 1032.2 421.4 1043.8 442.2C1055.8 463 1061.8 486 1061.8 511.2V687H979.6V511.2C979.6 498.8 976.6 487.6 970.6 477.6C964.6 467.2 956.4 459 946 453C936 447 924.8 444 912.4 444C900 444 888.6 447 878.2 453C868.2 459 860.2 467.2 854.2 477.6C848.2 487.6 845.2 498.8 845.2 511.2V687H763ZM1274.76 694.2C1243.16 694.2 1214.96 687.2 1190.16 673.2C1165.36 658.8 1145.76 639.6 1131.36 615.6C1116.96 591.2 1109.76 564 1109.76 534C1109.76 504 1116.96 477 1131.36 453C1145.76 428.6 1165.36 409.4 1190.16 395.4C1214.96 381 1243.16 373.8 1274.76 373.8C1306.36 373.8 1334.56 381 1359.36 395.4C1384.16 409.4 1403.76 428.6 1418.16 453C1432.56 477 1439.76 504 1439.76 534C1439.76 564 1432.56 591.2 1418.16 615.6C1403.76 639.6 1384.16 658.8 1359.36 673.2C1334.56 687.2 1306.36 694.2 1274.76 694.2ZM1274.76 624C1291.56 624 1305.96 620 1317.96 612C1330.36 604 1339.76 593.2 1346.16 579.6C1352.96 566 1356.36 550.8 1356.36 534C1356.36 517.2 1352.96 502 1346.16 488.4C1339.76 474.8 1330.36 464 1317.96 456C1305.96 448 1291.56 444 1274.76 444C1257.96 444 1243.36 448 1230.96 456C1218.96 464 1209.56 474.8 1202.76 488.4C1196.36 502 1193.16 517.2 1193.16 534C1193.16 550.8 1196.36 566 1202.76 579.6C1209.56 593.2 1218.96 604 1230.96 612C1243.36 620 1257.96 624 1274.76 624ZM1634.83 687C1603.23 687 1575.03 680.2 1550.23 666.6C1525.43 653 1505.83 634.8 1491.43 612C1477.03 588.8 1469.83 562.8 1469.83 534C1469.83 505.2 1477.03 479.4 1491.43 456.6C1505.83 433.4 1525.43 415 1550.23 401.4C1575.03 387.8 1603.23 381 1634.83 381H1673.23V451.2H1634.83C1618.03 451.2 1603.43 454.8 1591.03 462C1579.03 469.2 1569.63 479.2 1562.83 492C1556.43 504.4 1553.23 518.4 1553.23 534C1553.23 549.6 1556.43 563.8 1562.83 576.6C1569.63 589 1579.03 598.8 1591.03 606C1603.43 613.2 1618.03 616.8 1634.83 616.8H1673.23V687H1634.83ZM1718.41 687V249H1800.61V402.6C1813.41 392.2 1827.21 384.8 1842.01 380.4C1856.81 376 1871.41 373.8 1885.81 373.8C1915.41 373.8 1939.81 380 1959.01 392.4C1978.61 404.8 1993.21 421.4 2002.81 442.2C2012.41 463 2017.21 486 2017.21 511.2V687H1935.01V511.2C1935.01 498.8 1932.01 487.6 1926.01 477.6C1920.01 467.2 1911.81 459 1901.41 453C1891.41 447 1880.21 444 1867.81 444C1855.81 444 1844.61 447 1834.21 453C1824.21 458.6 1816.01 466.4 1809.61 476.4C1803.61 486 1800.61 496.8 1800.61 508.8V687H1718.41ZM2083.16 687V381H2165.96V687H2083.16ZM2124.56 344.4C2110.56 344.4 2098.36 339.4 2087.96 329.4C2077.96 319 2072.96 306.8 2072.96 292.8C2072.96 278.8 2077.96 266.8 2087.96 256.8C2098.36 246.4 2110.56 241.2 2124.56 241.2C2138.56 241.2 2150.56 246.4 2160.56 256.8C2170.96 266.8 2176.16 278.8 2176.16 292.8C2176.16 306.8 2170.96 319 2160.56 329.4C2150.56 339.4 2138.56 344.4 2124.56 344.4Z" fill="#474747"/>
</svg>
