<svg width="1200" height="1200" viewBox="0 0 1200 1200" fill="none" xmlns="http://www.w3.org/2000/svg">
<rect width="1200" height="1200" rx="250" fill="white"/>
<path d="M770.443 944.559C761.518 978.06 719.655 989.309 695.14 964.794L564.237 833.891C564.236 833.891 564.237 833.89 564.238 833.89C564.238 833.89 564.238 833.89 564.239 833.889L734.083 496.529C753.501 457.958 712.716 416.834 673.986 435.934L333.964 603.615C333.964 603.615 333.964 603.616 333.964 603.616C333.964 603.617 333.963 603.617 333.962 603.617L206.206 475.861C181.691 451.345 192.94 409.482 226.442 400.557L892.935 222.997C926.353 214.095 956.906 244.647 948.003 278.065L770.443 944.559Z" fill="#1DB568"/>
<path fill-rule="evenodd" clip-rule="evenodd" d="M754.336 396.309C767.245 389.942 780.841 403.65 774.368 416.507L568.393 825.635C565.845 830.697 560.662 833.89 554.995 833.89H348.963C340.679 833.89 333.963 827.174 333.963 818.89V612.943C333.963 607.232 337.206 602.016 342.329 599.49L754.336 396.309Z" fill="#B4E6CD"/>
</svg>
